PathFileType	4	(X/Y/Z)	D:\TRACE\spot_10-12-23\spot_arm_body_motion_3_5-platform.trc
DataRate	CameraRate	NumFrames	NumMarkers	Units	OrigDataRate	OrigDataStartFrame	OrigNumFrames
100.00	100.00	      30	5	mm	100.00	5251	      7000
Frame#	Time	Left_Front			Right_Front			Left_Aft			Right_Aft			Post			
		X1	Y1	Z1	X2	Y2	Z2	X3	Y3	Z3	X4	Y4	Z4	X5	Y5	Z5	

5251	52.500	-805.16833	-1.06474	-643.43463	767.40985	3.56930	-636.31757	-722.42792	10.02246	494.73508	694.93005	15.39039	580.77039	-22.14025	733.17346	-970.27386	
5252	52.510	-805.20679	-1.20526	-643.50006	767.52576	3.49151	-636.30273	-722.40540	9.99269	494.68848	694.89966	15.41375	580.74030	-22.16029	733.12939	-970.21533	
5253	52.520	-805.16150	-1.21945	-643.48706	767.58362	3.41543	-636.28583	-722.38934	9.98807	494.64435	694.91504	15.39932	580.73981	-22.03974	733.02246	-970.09064	
5254	52.530	-805.06537	-1.24880	-643.50714	767.69537	3.43240	-636.26166	-722.24365	10.10240	494.67615	694.97968	15.48990	580.75201	-21.92470	733.02911	-969.96161	
5255	52.540	-805.00067	-1.25170	-643.50299	767.74603	3.36807	-636.30170	-722.17902	10.14578	494.69745	695.07892	15.59480	580.76263	-21.84917	732.98291	-969.72784	
5256	52.550	-804.98541	-1.35969	-643.52838	767.77582	3.28095	-636.34644	-722.16455	10.15725	494.67377	695.14246	15.66444	580.73358	-21.77094	732.87732	-969.44366	
5257	52.560	-804.98505	-1.44908	-643.51453	767.86365	3.26974	-636.34930	-722.15796	10.19619	494.60635	695.12250	15.65790	580.71655	-21.84341	732.82623	-969.38190	
5258	52.570	-804.98926	-1.59023	-643.51709	767.87360	3.15371	-636.33063	-722.04559	10.19129	494.60947	695.11627	15.74353	580.73926	-21.90759	732.83051	-969.23883	
5259	52.580	-804.92059	-1.60373	-643.47827	767.88391	3.11147	-636.33917	-722.03387	10.18783	494.62769	695.16333	15.78499	580.73718	-21.85406	732.67059	-969.30768	
5260	52.590	-804.86670	-1.58107	-643.52478	767.90100	3.11393	-636.39697	-722.00134	10.29611	494.55188	695.23486	15.87570	580.71417	-21.77957	732.62939	-969.41229	
5261	52.600	-804.83472	-1.60199	-643.53430	768.03027	3.10121	-636.34039	-722.03375	10.45221	494.51273	695.34711	15.95614	580.64966	-21.69411	732.54901	-969.71289	
5262	52.610	-804.82898	-1.68533	-643.56927	768.08179	3.05408	-636.36523	-721.96893	10.44527	494.50809	695.35522	15.96239	580.63330	-21.73276	732.41852	-970.10059	
5263	52.620	-805.04083	-1.57397	-643.56781	768.03845	2.92847	-636.45056	-721.90930	10.41387	494.47421	695.33392	16.02233	580.67157	-21.61693	732.19116	-970.19879	
5264	52.630	-804.94568	-1.73567	-643.56299	768.01691	2.83298	-636.56110	-721.90021	10.38652	494.41522	695.33203	16.11193	580.72021	-21.45281	732.16345	-970.66150	
5265	52.640	-804.88080	-1.86062	-643.58563	768.12714	2.80759	-636.53253	-721.90295	10.45365	494.42688	695.42773	16.19474	580.70093	-21.38977	732.02271	-971.11273	
5266	52.650	-804.86462	-1.86366	-643.61523	768.18732	2.79857	-636.51141	-721.84436	10.65113	494.40799	695.53748	16.31417	580.64435	-21.11903	731.74408	-971.46283	
5267	52.660	-804.83881	-1.94386	-643.59235	768.25916	2.63765	-636.52795	-721.85223	10.77190	494.43054	695.59351	16.40588	580.61615	-21.20951	731.54779	-971.65002	
5268	52.670	-804.81348	-2.18031	-643.66205	768.23096	2.48714	-636.66479	-721.84827	10.80183	494.40738	695.57379	16.41190	580.62524	-21.28106	731.29187	-971.77222	
5269	52.680	-804.79626	-2.38386	-643.67798	768.21735	2.30824	-636.69269	-721.84430	10.75916	494.35339	695.53076	16.45905	580.65033	-21.33384	731.05756	-971.77478	
5270	52.690	-804.75397	-2.55155	-643.63269	768.19312	2.22268	-636.76068	-721.74066	10.74570	494.34232	695.56030	16.57946	580.63000	-21.30345	730.93250	-971.72565	
5271	52.700	-804.69580	-2.48253	-643.64398	768.19916	2.18604	-636.75232	-721.69220	10.98285	494.33102	695.66901	16.66151	580.58063	-21.22652	730.86957	-971.64844	
5272	52.710	-804.59857	-2.60176	-643.68567	768.32947	2.02427	-636.76001	-721.62885	11.14264	494.36777	695.72357	16.77688	580.52716	-21.19479	730.85205	-971.44806	
5273	52.720	-804.55267	-2.76158	-643.73181	768.27838	2.07018	-636.76910	-721.57513	11.18326	494.34662	695.73926	16.84192	580.49799	-21.14798	730.68231	-971.35803	
5274	52.730	-804.53937	-2.89614	-643.72455	768.28015	1.96648	-636.79156	-721.52252	11.20987	494.29245	695.73499	16.85814	580.49188	-21.07561	730.61804	-971.26605	
5275	52.740	-804.60089	-2.97216	-643.71851	768.24646	1.75866	-636.83185	-721.52692	11.26660	494.27972	695.73761	16.91728	580.45471	-21.05446	730.52911	-971.30548	
5276	52.750	-804.50604	-3.04146	-643.78821	768.20752	1.43277	-636.82471	-721.47937	11.43968	494.20798	695.73364	17.03716	580.40625	-21.03649	730.39685	-971.27405	
5277	52.760	-804.48120	-3.06201	-643.81604	768.35022	1.46443	-636.79285	-721.42316	11.52405	494.23218	695.79614	17.10831	580.36707	-20.99230	730.34753	-971.59131	
5278	52.770	-804.45544	-3.18270	-643.82465	768.24530	1.30981	-636.94098	-721.36108	11.70130	494.15353	695.80841	17.22151	580.34473	-21.02934	730.26813	-971.79163	
5279	52.780	-804.38696	-3.37743	-643.79565	768.35046	1.06419	-636.93622	-721.35651	11.69189	494.16052	695.83197	17.25123	580.32489	-20.98916	730.14893	-972.02551	
5280	52.790	-804.32562	-3.51736	-643.86743	768.20197	1.20685	-637.07086	-721.33704	11.70829	494.14859	695.81262	17.27896	580.30511	-20.99359	729.94080	-972.42383	
